<svg id="Layer_3" enable-background="new 0 0 64 64" height="512" viewBox="0 0 64 64" width="512" xmlns="http://www.w3.org/2000/svg"><g><path d="m25.164 28.98c-.106-.307-.164-.637-.164-.98s.058-.673.164-.98l-8.164-1.02-9 2 9 2z" fill="#e39854"/><path d="m58 59h-30c-.552 0-1-.448-1-1v-2h31z" fill="#cbc3b6"/><path d="m26 56h24v-12c0-1.105-.895-2-2-2h-20c-1.105 0-2 .895-2 2z" fill="#758190"/><path d="m56 44 2 7h3c.552 0 1 .448 1 1v4h-12v-12z" fill="#a8b0bc"/><path d="m58 51h-5v-7h3z" fill="#c7e2fc"/><path d="m26 49.91c-11.213-1.01-20-10.434-20-21.91 0-12.15 9.85-22 22-22s22 9.85 22 22h-4l6 8 6-8h-4c0-14.359-11.641-26-26-26s-26 11.641-26 26c0 13.686 10.575 24.903 24 25.924" fill="#96cc7f"/><circle cx="28" cy="28" fill="#669e4f" r="3"/><path d="m28.999 6.025c-.331-.015-.664-.025-.999-.025s-.668.01-1 .025v3.973h1.999z" fill="#669e4f"/><g><path d="m35.999 54h-5.999c-.553 0-1-.448-1-1v-4.001c0-.553.447-1 1-1h3.999v-2h-4.999v-2h5.999c.553 0 1 .447 1 1v4c0 .552-.447.999-1 .999h-3.999v2.002h4.999z" fill="#c1c8d1"/></g><path d="m44.999 47.998h-1v-3.999h-1.999v3.999h-3v-3.999h-2v4.999c0 .553.447 1 1 1h4v4h1.999v-4h1z" fill="#c1c8d1"/><g><path d="m45 51.999h1.999v1.999h-1.999z" fill="#c1c8d1"/></g><circle cx="50" cy="59" fill="#666" r="3"/><circle cx="33" cy="59" fill="#666" r="3"/><path d="m62 56v2c0 1.105-.895 2-2 2h-2v-4" fill="#8892a0"/><g fill="#669e4f"><path d="m42.792 11.715-3.5 3.5 1.415 1.415 3.502-3.502c-.451-.491-.923-.964-1.417-1.413z"/><path d="m11.753 13.168 3.539 3.538 1.415-1.415-3.539-3.538c-.493.45-.965.922-1.415 1.415z"/><path d="m11.368 42.391c.438.506.898.991 1.38 1.455l3.881-3.146-1.259-1.554z"/></g><g><g><path d="m19.15 26.343-1.966-.366c.067-.363.153-.721.256-1.07l1.919.562c-.083.284-.153.577-.209.874z" fill="#e47c6e"/></g><g><path d="m20.068 23.741-1.763-.946c.359-.669.79-1.304 1.28-1.887l1.53 1.288c-.4.478-.753.997-1.047 1.545zm2.392-2.839-1.231-1.575c.598-.468 1.247-.876 1.929-1.212l.884 1.794c-.56.276-1.091.61-1.582.993z" fill="#e47c6e"/></g><g><path d="m25.803 19.269-.489-1.938c.354-.09.714-.161 1.081-.215l.29 1.979c-.299.044-.593.101-.882.174z" fill="#e47c6e"/></g></g><g><g><path d="m30.195 19.269c-.289-.072-.583-.13-.882-.174l.29-1.979c.367.054.728.125 1.081.215z" fill="#e47c6e"/></g><g><path d="m27.042 38.957c-.728-.063-1.45-.2-2.148-.405l.563-1.919c.571.168 1.163.279 1.758.331zm2.181-.029-.22-1.987c.595-.066 1.183-.191 1.748-.372l.608 1.905c-.691.22-1.41.374-2.136.454zm-6.353-1.196c-.644-.34-1.257-.746-1.822-1.207l1.265-1.55c.463.377.965.71 1.492.988zm10.49-.13-.974-1.747c.52-.29 1.013-.634 1.466-1.021l1.3 1.519c-.552.473-1.155.893-1.792 1.249zm-13.857-2.614c-.465-.564-.874-1.176-1.216-1.817l1.765-.94c.279.523.614 1.023.995 1.485zm17.156-.213-1.573-1.235c.369-.469.691-.977.959-1.507l1.786.899c-.327.65-.722 1.27-1.172 1.843zm1.951-3.882-1.929-.528c.156-.57.256-1.162.296-1.76l1.995.134c-.048.731-.17 1.455-.362 2.154zm-1.691-4.077c-.077-.593-.214-1.177-.405-1.736l1.892-.649c.235.688.402 1.402.497 2.127zm-1.152-3.363c-.299-.512-.651-.997-1.049-1.442l1.493-1.331c.485.545.917 1.139 1.283 1.765zm-2.365-2.652c-.478-.359-.99-.671-1.525-.927l.862-1.804c.654.312 1.282.693 1.865 1.132z" fill="#e47c6e"/></g><g><path d="m17.444 31.108c-.103-.351-.189-.708-.257-1.072l1.966-.366c.056.296.125.587.21.871z" fill="#e47c6e"/></g></g><path d="m28.968 25.16 1.032-5.16-2-7-2 7 1.032 5.16c.304-.104.629-.16.968-.16s.664.056.968.16z" fill="#f7d881"/><path d="m53 50.693c1.836-1.648 2.998-4.032 2.999-6.693-.003 0-2.999 0-2.999 0z" fill="#ebf7fe"/><path d="m28 25c-1.657 0-3 1.343-3 3 0 .989.485 1.859 1.223 2.406 1.622-1.203 2.776-2.993 3.145-5.061-.412-.213-.872-.345-1.368-.345z" fill="#96cc7f"/></g></svg>