<svg id="Layer_5" enable-background="new 0 0 64 64" height="512" viewBox="0 0 64 64" width="512" xmlns="http://www.w3.org/2000/svg"><g><g><g><path d="m29.2 40.4-1.2-12.4h31l-2.56 26.5c-.25 2-1.95 3.5-3.97 3.5h-12.47v-6h2v-2c0-2.21-1.79-4-4-4h-8v-4c0-.65-.32-1.23-.8-1.59z" fill="#b4dd7f"/></g><g><path d="m60 22c1.1 0 2 .9 2 2v2c0 1.1-.9 2-2 2h-1-31-1c-1.1 0-2-.9-2-2v-2c0-1.1.9-2 2-2h32.87z" fill="#a0d468"/></g><g><path d="m60 21c0 .35-.04.68-.13 1h-32.87c-1.1 0-2 .9-2 2v-5c0-2.76 2.24-5 5-5 1.81 0 3.38.97 4.26 2.41.53-.25 1.11-.41 1.74-.41.38 0 .74.07 1.09.17.38-1.81 1.99-3.17 3.91-3.17 1.75 0 3.22 1.13 3.76 2.69.64-.44 1.41-.69 2.24-.69.5 0 .97.1 1.41.27.65-1.34 2-2.27 3.59-2.27 2.21 0 4 1.79 4 4 2.21 0 4 1.79 4 4z" fill="#e6e9ed"/></g><g><circle cx="12" cy="20" fill="#69d6f4" r="3"/></g><g><circle cx="6" cy="10" fill="#69d6f4" r="2"/></g><g><circle cx="6" cy="33" fill="#69d6f4" r="2"/></g><g><circle cx="52" cy="5" fill="#69d6f4" r="3"/></g><g><circle cx="38" cy="7" fill="#69d6f4" r="2"/></g><g><circle cx="60" cy="9" fill="#69d6f4" r="2"/></g><g><path d="m42 50v2h-2-8-8-8-8-4-2v-2c0-2.21 1.79-4 4-4h8 16 8c2.21 0 4 1.79 4 4z" fill="#969faa"/></g><g><path d="m4 52h4v10h-4z" fill="#e6e9ed"/></g><g><path d="m8 52h8v10h-4-4z" fill="#ccd1d9"/></g><g><path d="m24 52h8v10h-4-4z" fill="#ccd1d9"/></g><g><path d="m16 52h8v10h-4-4z" fill="#e6e9ed"/></g><g><path d="m32 52h8v6 4h-4-4z" fill="#e6e9ed"/></g><g><path d="m30 42v4h-16v-4c0-1.1.9-2 2-2h3 6 3c.45 0 .86.15 1.2.4v.01c.48.36.8.94.8 1.59z" fill="#d3a06c"/></g><g><path d="m25 24v2 14h-6v-35c0-.83.34-1.58.88-2.12s1.29-.88 2.12-.88c1.66 0 3 1.34 3 3v14z" fill="#b27946"/></g></g><g><path d="m53.984 53.248.391-3.124-1.984-.248-.391 3.124h-3v2h3c1.007 0 1.86-.753 1.984-1.752z"/><path d="m60.989 21.181c.002-.061.011-.121.011-.181 0-2.444-1.763-4.484-4.084-4.916-.432-2.321-2.472-4.084-4.916-4.084-1.638 0-3.127.786-4.056 2.096-.936-.189-1.879-.093-2.734.235-.902-1.428-2.482-2.331-4.21-2.331-2.012 0-3.811 1.224-4.589 3.02-.611-.058-1.203.009-1.786.181-1.133-1.391-2.809-2.201-4.625-2.201-1.538 0-2.937.586-4 1.54v-9.54c0-2.206-1.794-4-4-4s-4 1.794-4 4v34h-2c-1.654 0-3 1.346-3 3v3h-7c-2.757 0-5 2.243-5 5v3h2v10h38v-4h11.469c2.517 0 4.65-1.883 4.965-4.408l2.474-25.592h.092c1.654 0 3-1.346 3-3v-2c0-1.306-.844-2.408-2.011-2.819zm-30.989-6.181c1.396 0 2.668.723 3.405 1.934l.474.778.819-.399c.663-.322 1.239-.433 2.117-.182l1.031.293.222-1.048c.29-1.377 1.524-2.376 2.932-2.376 1.263 0 2.395.81 2.817 2.016l.429 1.226 1.076-.728c.78-.527 1.749-.683 2.734-.31l.856.324.398-.824c.507-1.051 1.539-1.704 2.69-1.704 1.654 0 3 1.346 3 3v1h1c1.654 0 3 1.346 3 3h-32c-.352 0-.686.072-1 .184v-2.184c0-2.206 1.794-4 4-4zm-2.908 14 .967 10.006c-.02 0-.039-.006-.059-.006h-2v-10.184c.314.112.648.184 1 .184zm-7.092-24c0-1.103.897-2 2-2s2 .897 2 2v19 2 13h-4zm-5 37c0-.551.449-1 1-1h12c.551 0 1 .449 1 1v3h-14zm-12 8c0-1.654 1.346-3 3-3h32c1.654 0 3 1.346 3 3v1h-38zm24 5v6h-2v-8h6v8h-2v-6zm-8 0v6h-2v-8h6v8h-2v-6zm-8 0v6h-2v-8h6v8h-2v-6zm-6-2h2v8h-2zm32 8v-6h-2v6h-2v-8h6v8zm18.446-6.628c-.187 1.498-1.467 2.628-2.977 2.628h-11.469v-4h2v-3c0-2.757-2.243-5-5-5h-7v-3c0-.806-.323-1.535-.842-2.075l-1.057-10.925h28.798zm5.554-28.372c0 .551-.449 1-1 1h-33c-.551 0-1-.449-1-1v-2c0-.551.449-1 1-1h33c.551 0 1 .449 1 1z"/><path d="m60 12c1.654 0 3-1.346 3-3s-1.346-3-3-3-3 1.346-3 3 1.346 3 3 3zm0-4c.551 0 1 .449 1 1s-.449 1-1 1-1-.449-1-1 .449-1 1-1z"/><path d="m38 10c1.654 0 3-1.346 3-3s-1.346-3-3-3-3 1.346-3 3 1.346 3 3 3zm0-4c.551 0 1 .449 1 1s-.449 1-1 1-1-.449-1-1 .449-1 1-1z"/><path d="m52 9c2.206 0 4-1.794 4-4s-1.794-4-4-4-4 1.794-4 4 1.794 4 4 4zm0-6c1.103 0 2 .897 2 2s-.897 2-2 2-2-.897-2-2 .897-2 2-2z"/><path d="m45 53h2v2h-2z"/><path d="m35 31h2v2h-2z"/><path d="m31 31h2v2h-2z"/><path d="m39 31h2v2h-2z"/><path d="m6 36c1.654 0 3-1.346 3-3s-1.346-3-3-3-3 1.346-3 3 1.346 3 3 3zm0-4c.551 0 1 .449 1 1s-.449 1-1 1-1-.449-1-1 .449-1 1-1z"/><path d="m12 24c2.206 0 4-1.794 4-4s-1.794-4-4-4-4 1.794-4 4 1.794 4 4 4zm0-6c1.103 0 2 .897 2 2s-.897 2-2 2-2-.897-2-2 .897-2 2-2z"/><path d="m6 13c1.654 0 3-1.346 3-3s-1.346-3-3-3-3 1.346-3 3 1.346 3 3 3zm0-4c.551 0 1 .449 1 1s-.449 1-1 1-1-.449-1-1 .449-1 1-1z"/></g></g></svg>