<svg height="512" viewBox="0 0 64 64" width="512" xmlns="http://www.w3.org/2000/svg"><g id="Captions"><g><g><path d="m38 8h10v8h-10z" fill="#00a0c8"/></g><g><path d="m38 8h10v1h-10z" fill="#0082aa"/></g><g><path d="m48 8h-10c-1.104 0-2-.896-2-2s.896-2 2-2h10c1.104 0 2 .896 2 2s-.896 2-2 2z" fill="#c80a50"/></g><g><path d="m56 16h-48v38c0 1.105.895 2 2 2h44c1.105 0 2-.895 2-2z" fill="#0a5078"/></g><g><path d="m20 33h-8c-.552 0-1-.448-1-1 0-.552.448-1 1-1h8c.552 0 1 .448 1 1 0 .552-.448 1-1 1z" fill="#00325a"/></g><g><path d="m20 47h-8c-.552 0-1-.448-1-1 0-.552.448-1 1-1h8c.552 0 1 .448 1 1 0 .552-.448 1-1 1z" fill="#00325a"/></g><g><path d="m8 18h48v1h-48z" fill="#00325a"/></g><g><path d="m56 18h-48c-.552 0-1-.448-1-1 0-.552.448-1 1-1h48c.552 0 1 .448 1 1 0 .552-.448 1-1 1z" fill="#fab400"/></g><g><g><path d="m20 30h-8v-7c0-.552.448-1 1-1h6c.552 0 1 .448 1 1z" fill="#fab400"/></g><g><path d="m20 32h-8c-.552 0-1-.448-1-1 0-.552.448-1 1-1h8c.552 0 1 .448 1 1 0 .552-.448 1-1 1z" fill="#00a0c8"/></g></g><g><g><path d="m20 44h-8v-7c0-.552.448-1 1-1h6c.552 0 1 .448 1 1z" fill="#fab400"/></g><g><path d="m20 46h-8c-.552 0-1-.448-1-1 0-.552.448-1 1-1h8c.552 0 1 .448 1 1 0 .552-.448 1-1 1z" fill="#00a0c8"/></g></g><g><path d="m8 16 6-6h36l6 6z" fill="#c80a50"/></g><g><path d="m35 36h-6c-.552 0-1 .448-1 1v1c0-.552.448-1 1-1h6c.552 0 1 .448 1 1v-1c0-.552-.448-1-1-1z" fill="#dc9600"/></g><g><path d="m19 22h-6c-.552 0-1 .448-1 1v1c0-.552.448-1 1-1h6c.552 0 1 .448 1 1v-1c0-.552-.448-1-1-1z" fill="#dc9600"/></g><g><path d="m19 36h-6c-.552 0-1 .448-1 1v1c0-.552.448-1 1-1h6c.552 0 1 .448 1 1v-1c0-.552-.448-1-1-1z" fill="#dc9600"/></g><g><path d="m51 36h-6c-.552 0-1 .448-1 1v1c0-.552.448-1 1-1h6c.552 0 1 .448 1 1v-1c0-.552-.448-1-1-1z" fill="#dc9600"/></g><g><g><path d="m26 38c0 .552.448 1 1 1h1v1c0 .552.448 1 1 1h7v3c0 1.306.835 2.417 2 2.829v9.171h4v-9.171c1.165-.412 2-1.523 2-2.829v-3h7c.552 0 1-.448 1-1v-1h1c.552 0 1-.448 1-1v-1h-28z" fill="#00325a"/></g><g><path d="m27 38h26c.552 0 1-.448 1-1v-1h-28v1c0 .552.448 1 1 1z" fill="#c80a50"/></g><g><path d="m29 40h22c.552 0 1-.448 1-1v-1h-24v1c0 .552.448 1 1 1z" fill="#fab400"/></g><g><path d="m40 60c-1.105 0-2-.895-2-2v-14h4v14c0 1.105-.895 2-2 2z" fill="#c80a50"/></g><g><path d="m38 46.829c.313.11.649.171 1 .171h2c.351 0 .687-.061 1-.171v-2.829h-4z" fill="#a00028"/></g><g><path d="m39 46h2c1.657 0 3-1.343 3-3v-3h-8v3c0 1.657 1.343 3 3 3z" fill="#fab400"/></g><g><path d="m28 38h24v1h-24z" fill="#dc9600"/></g><g><path d="m41 42h-2c-.552 0-1-.448-1-1 0-.552.448-1 1-1h2c.552 0 1 .448 1 1 0 .552-.448 1-1 1z" fill="#be7800"/></g></g><g><path d="m26 18h28v18h-28z" fill="#00a0c8"/></g><g><path d="m26 18v18h1v-17h26v17h1v-18z" fill="#0082aa"/></g><g><g><path d="m54 30h-2v-2c0-.552.448-1 1-1 .552 0 1 .448 1 1z" fill="#fab400"/></g><g><path d="m53 35c-.552 0-1-.448-1-1v-2h2v2c0 .552-.448 1-1 1z" fill="#fab400"/></g><g><path d="m52 30v2h-2c-.552 0-1-.448-1-1 0-.552.448-1 1-1z" fill="#fab400"/></g><g><path d="m57 31c0 .552-.448 1-1 1h-2v-2h2c.552 0 1 .448 1 1z" fill="#fab400"/></g></g><g><g><path d="m28 22h-2v-2c0-.552.448-1 1-1 .552 0 1 .448 1 1z" fill="#fab400"/></g><g><path d="m27 27c-.552 0-1-.448-1-1v-2h2v2c0 .552-.448 1-1 1z" fill="#fab400"/></g><g><path d="m26 22v2h-2c-.552 0-1-.448-1-1 0-.552.448-1 1-1z" fill="#fab400"/></g><g><path d="m31 23c0 .552-.448 1-1 1h-2v-2h2c.552 0 1 .448 1 1z" fill="#fab400"/></g></g><g><g><path d="m41 26h-2v-2c0-.552.448-1 1-1 .552 0 1 .448 1 1z" fill="#fab400"/></g><g><path d="m40 31c-.552 0-1-.448-1-1v-2h2v2c0 .552-.448 1-1 1z" fill="#fab400"/></g><g><path d="m39 26v2h-2c-.552 0-1-.448-1-1 0-.552.448-1 1-1z" fill="#fab400"/></g><g><path d="m44 27c0 .552-.448 1-1 1h-2v-2h2c.552 0 1 .448 1 1z" fill="#fab400"/></g></g></g></g></svg>