<svg id="Capa_1" enable-background="new 0 0 512 512" height="512" viewBox="0 0 512 512" width="512" xmlns="http://www.w3.org/2000/svg"><g><path d="m491.739 39.945c-3.346-9.125-10.563-16.343-19.689-19.689-117.434-43.057-254.346-17.475-348.607 76.785-8.438 8.438-16.321 17.219-23.658 26.296-1.128 1.395-.578 3.487 1.084 4.164 28.35 11.542 48.34 39.357 48.34 71.854 0 39.792-29.968 72.563-68.563 77.025-3.28.379-5.663 3.381-5.144 6.642.431 2.71.658 5.488.658 8.32 0 27.258-20.559 49.701-47.015 52.7-1.397.158-2.434 1.388-2.368 2.792 1.793 38.532 10.265 76.813 25.438 112.95 120.435 50.566 264.67 26.838 362.739-71.231 94.26-94.263 119.841-231.175 76.785-348.608z" fill="#6fbbc6"/><g><path d="m99.785 123.337c-1.128 1.395-.578 3.487 1.084 4.164 1.307.532 2.591 1.111 3.862 1.711-1.113-2.517-2.36-4.965-3.732-7.336-.4.489-.816.969-1.214 1.461z" fill="#67b59f"/><path d="m491.739 39.945c-3.346-9.125-10.563-16.343-19.689-19.689-.333-.122-.668-.236-1.001-.357 34.583 112.814 5.985 239.961-85.856 329.03-92.961 90.154-226.15 117.474-343.521 82.014 3.057 9.736 6.564 19.364 10.542 28.84 120.435 50.566 264.67 26.838 362.739-71.231 94.261-94.262 119.842-231.174 76.786-348.607z" fill="#61aab8"/></g><path d="m7.617 512c-1.947 0-3.896-.743-5.383-2.229-2.972-2.973-2.972-7.792 0-10.765l476.454-476.454c2.973-2.971 7.792-2.971 10.765 0 2.972 2.973 2.972 7.792 0 10.765l-476.453 476.454c-1.487 1.486-3.434 2.229-5.383 2.229z" fill="#5595a2"/><g><g fill="#4980ac"><path d="m385.797 235.97c-.87 0-1.754-.151-2.619-.467-3.946-1.447-5.973-5.82-4.526-9.767l25.743-70.214c2.72-7.413 8.01-13.621 14.897-17.482l41.51-23.266c3.669-2.055 8.305-.748 10.361 2.918 2.056 3.667.749 8.306-2.918 10.361l-41.51 23.266c-3.721 2.086-6.579 5.44-8.048 9.444l-25.742 70.214c-1.131 3.082-4.045 4.993-7.148 4.993z"/><path d="m304.133 235.97c-3.103 0-6.017-1.911-7.148-4.993l-25.743-70.214c-1.468-4.004-4.325-7.358-8.047-9.444l-41.51-23.266c-3.667-2.055-4.973-6.694-2.918-10.361s6.692-4.975 10.361-2.918l41.51 23.266c6.889 3.86 12.179 10.069 14.897 17.483l25.743 70.213c1.447 3.947-.58 8.32-4.526 9.767-.864.317-1.749.467-2.619.467z"/></g><g fill="#4980ac"><path d="m439.443 412.038c-.525 0-1.057-.055-1.592-.168-4.111-.874-6.735-4.917-5.861-9.029l15.022-70.632c1.175-5.527-.818-11.176-5.201-14.743l-62.823-51.121c-3.261-2.653-3.753-7.447-1.1-10.708s7.446-3.754 10.708-1.1l62.824 51.121c8.835 7.19 12.852 18.577 10.483 29.719l-15.022 70.632c-.762 3.577-3.922 6.029-7.438 6.029z"/><path d="m250.487 412.038c-3.516 0-6.676-2.452-7.437-6.03l-15.022-70.632c-2.37-11.142 1.647-22.528 10.482-29.719l62.825-51.121c3.262-2.654 8.055-2.161 10.708 1.1s2.161 8.055-1.1 10.708l-62.824 51.121c-4.383 3.567-6.376 9.216-5.2 14.743l15.022 70.632c.874 4.112-1.75 8.155-5.861 9.029-.536.113-1.069.169-1.593.169z"/></g><g fill="#bed9fd"><path d="m362.708 108.053c-4.204 0-7.612-3.407-7.612-7.611 0-30.302 11.221-65.674 42.715-74.072 4.06-1.081 8.233 1.332 9.316 5.393s-1.332 8.233-5.393 9.316c-11.819 3.152-20.522 12.045-25.868 26.432-5.006 13.47-5.546 27.516-5.546 32.931-.001 4.203-3.408 7.611-7.612 7.611z"/><path d="m327.223 108.053c-4.204 0-7.611-3.407-7.611-7.611 0-5.414-.54-19.46-5.546-32.931-5.347-14.388-14.051-23.28-25.869-26.432-4.061-1.083-6.477-5.255-5.393-9.316 1.082-4.061 5.252-6.483 9.316-5.393 31.495 8.399 42.716 43.77 42.716 74.072-.002 4.203-3.409 7.611-7.613 7.611z"/></g><path d="m382.401 163.452-38.156 15-36.716-15v-50.779c0-20.675 16.761-37.436 37.436-37.436s37.436 16.761 37.436 37.436z" fill="#5d91b9"/><path d="m344.965 75.237c-3.657 0-7.188.534-10.528 1.512 12.446 4.034 21.449 15.717 21.449 29.507v57.196h26.515v-50.779c0-20.676-16.761-37.436-37.436-37.436z" fill="#4980ac"/><path d="m307.529 163.452-41.82 114.968c-7.845 21.567-5.716 45.504 5.812 65.348l20.075 34.558c3.769 6.489 10.707 10.481 18.211 10.481h12.057c12.758 0 23.101-10.343 23.101-23.101l20.323-202.255h-57.759z" fill="#e09494"/><path d="m382.401 163.452 41.82 114.968c7.845 21.567 5.716 45.504-5.812 65.348l-20.075 34.558c-3.769 6.489-10.707 10.481-18.211 10.481h-12.057c-12.758 0-23.101-10.343-23.101-23.101v-202.254z" fill="#d97b7b"/><path d="m424.22 278.42-41.82-114.968h-26.515l37.774 114.968c7.086 21.567 5.163 45.504-5.249 65.348l-18.134 34.558c-2.259 4.306-5.783 7.503-9.876 9.174 2.399.844 4.978 1.308 7.665 1.308h12.057c7.504 0 14.441-3.993 18.211-10.481l20.075-34.558c11.529-19.845 13.657-43.782 5.812-65.349z" fill="#d16161"/></g></g></svg>